<svg xmlns="http://www.w3.org/2000/svg" width="89.791" height="128" viewBox="0 0 89.791 128"><path d="m65.075 16.06 3.59-.041c2.977.22 2.977.22 4.887 2.13.627 8.349-2.818 15.682-8.119 21.911-6.553 4.767-16.397 5.108-24.22 5.589-2.097.083-2.097.083-3.959 1.157l2.926-.417 3.76-.538 3.165-.537c11.436-1.357 11.436-1.357 14.779.559 1.998 2.016 3.001 4.027 3.273 6.847-.373 5.786-2.451 9.8-6.649 13.847-4.25 2.48-8.855 3.909-13.613 5.075l.046 1.796c.059 2.684.096 5.369.134 8.055l.073 2.826.028 2.715.046 2.502c-.327 2.165-.327 2.165-1.631 3.893-1.561 1.138-1.561 1.138-3.89 1.079-2.911-1.066-4.157-2.474-6.268-4.717l-2.627-1.552-2.149-1.314v-1.91l-2.866-.955c-3.51-4.915-4.793-8.301-3.821-14.328 4.291-4.543 7.562-5.525 13.672-5.91q2.163-.196 4.324-.399l2.078-.184c4.863-.496 9.251-1.277 13.359-4.015.239-2.946.239-2.946 0-5.731-13.947-.502-13.947-.502-26.168 5.123-1.389 1.417-2.719 2.891-4.041 4.37-2.269 1.969-2.269 1.969-5.91 1.79L16.239 64a81 81 0 0 1 1.91-6.687l-2.347-1.891c-3.021-3.588-3.205-6.327-3.085-10.826l.038-2.201c.236-4.991.985-8.457 4.528-12.175l1.821-1.563 2.059-1.832c7.499-6.228 13.875-8.116 23.434-8.795q2.662-.209 5.324-.425c.778-.057 1.555-.115 2.357-.172 12.477-1.372 12.477-1.372 12.796-1.373M26.746 31.522v1.91l-2.866.955c-3.194 4.733-3.195 8.842-2.866 14.328l1.261-1.153 1.724-1.533 1.679-1.512c6.757-5.124 14.23-5.596 22.39-6.75l3.009-.456 2.723-.384c2.906-.716 4.902-1.758 7.332-3.496 1.877-3.106 2.866-4.955 2.866-8.597-12.259-.411-26.698-.351-37.254 6.687m3.821 40.119c-.966 3.073-1.12 4.395.18 7.403 1.698 2.55 1.698 2.55 5.553 3.106V71.642z" fill="#9e9fa1"/><path d="M29.612 43.94h3.821v2.866h-1.91v2.866q3.045-.442 6.09-.895l3.425-.504c2.814-.353 2.814-.353 4.813-1.466a182 182 0 0 1 7.284-.059l2.044.012q2.5.019 5.001.047v2.866h2.866c.398 5.78.099 8.761-3.821 13.373h-1.91l-.955 2.866c-2.588 1.293-4.786 1.017-7.642.955v1.91l-3.821.955c-1.151 4.673-1.275 9.364-1.492 14.15l-.125 2.557q-.153 3.108-.295 6.218c-4.553.201-4.553.201-6.567-1.611l-2.03-2.21a151 151 0 0 0-3.343-2.208c-3.742-2.638-5.406-5.004-7.164-9.255 0-3.641 0-3.641.955-6.687 1.971-1.146 1.971-1.146 3.821-1.91l.351 2.474.485 3.197.47 3.19.604 2.602 1.91.955v1.91h4.776l.176-2.197.243-2.878c.076-.942.155-1.884.235-2.854.302-2.578.302-2.578 1.257-5.444h-9.552l.955-2.866q4.356-.724 8.716-1.433l2.478-.415c4.278-.689 8.337-1.188 12.687-1.017 2.283-3.654 2.445-7.257 2.866-11.463q-3.612-.038-7.223-.059l-2.039-.025c-4.322-.019-8.443.254-12.709 1.04l-.955.955c-3.224.299-3.224.299-6.687 0-1.85-1.91-1.85-1.91-2.866-3.821 1.454-2.511 2.717-4.627 4.776-6.687" fill="#95989b"/><path d="m21.97 25.791 1.91.955-.955 1.91h-1.91v3.821l2.149-.895c2.161-.836 4.203-1.439 6.448-1.971l-1.186 1.328-1.56 1.777-1.545 1.746c-2.523 3.215-3.607 5.61-3.47 9.717l.119 3.582 1.538-1.395 2.044-1.829 2.016-1.813c3.737-3.015 6.574-3.815 11.358-4.157l2.85-.217 2.164-.141c-2.176 2.176-3.025 2.28-5.97 2.806-6.258 1.305-10.479 3.174-14.089 8.657-.743 2.084-.743 2.084-.955 3.821h-1.91c-2.83-5.485-2.612-11.423-.955-17.253l.954-2.807h-2.866v2.866l-1.91.955v16.239c4.277 1.017 4.277 1.017 6.687.955-.548 3.698-2.376 5.81-4.776 8.597h4.776l.955-2.866h1.91v-1.91c7.081-6.474 15.056-6.857 24.239-6.806l2.093-.011c5.069.01 5.069.01 6.146 1.086-.522 7.947-.522 7.947-3.821 11.463-2.503.755-2.503.755-5.471 1.141l-3.224.459-3.365.43q-3.304.439-6.604.903l-2.961.382c-.745.166-1.488.334-2.255.506l-.955 1.91h9.552l-.955 13.373c-3.821.955-3.821.955-5.731 0v-1.91l-2.866-.955c-.917-2.753-1.056-4.489-1.014-7.343l.026-2.34.032-1.781c-2.941 2.478-2.941 2.478-4.299 5.97.691 3.798 2.435 6.916 4.299 10.269-3.424-1.141-4.263-2.57-5.914-5.698-1.409-3.545-1.387-5.774-.773-9.586 4.291-4.543 7.562-5.525 13.672-5.91q2.163-.196 4.324-.399l2.078-.184c4.863-.495 9.251-1.276 13.359-4.014.239-2.946.239-2.946 0-5.731-13.947-.502-13.947-.502-26.168 5.123-1.389 1.417-2.719 2.891-4.041 4.37-2.269 1.969-2.269 1.969-5.91 1.79L16.239 64a81 81 0 0 1 1.91-6.687l-2.347-1.891c-3.022-3.589-3.202-6.326-3.085-10.826l.027-2.192c.22-5.149 1.213-8.53 4.828-12.367l1.532-1.38a1529 1529 0 0 0 2.866-2.866m8.597 45.851c-.966 3.073-1.12 4.395.18 7.403 1.696 2.548 1.696 2.548 5.551 3.104V71.642z" fill="#4c4f52"/><path d="m65.075 16.06 3.59-.041c2.977.22 2.977.22 4.887 2.13.627 8.349-2.818 15.682-8.119 21.911-6.553 4.767-16.397 5.108-24.22 5.589-2.097.083-2.097.083-3.959 1.157l2.926-.417 3.76-.538 3.165-.537c11.436-1.357 11.436-1.357 14.779.559 1.998 2.016 3.001 4.027 3.273 6.847-.373 5.786-2.451 9.8-6.649 13.847-4.25 2.48-8.855 3.909-13.613 5.075l.046 1.796c.059 2.684.096 5.369.134 8.055l.073 2.826.028 2.715.046 2.502c-.327 2.165-.327 2.165-1.631 3.893-1.561 1.138-1.561 1.138-3.89 1.079-2.911-1.066-4.157-2.474-6.268-4.717l-2.627-1.552-2.149-1.314v-1.91c3.423 1.58 6.505 3.515 9.552 5.731v1.91h4.776l-.067-3.768-.053-4.948-.048-2.478c-.036-4.63.267-8.337 2.078-12.686h3.821v-1.91l3.582-.656c4.017-.994 5.633-2.487 7.881-6.031l1.91-2.866c.431-1.958.431-1.958.597-4l.359-3.641h-2.866v-2.866c-7.41.375-14.594.742-21.829 2.482-2.312.433-4.48.446-6.828.384v-2.866c4.731-2.974 9.344-3.518 14.832-4.26 4.258-.662 8.364-1.71 12.523-2.822 2.257-.56 2.257-.56 4.168-.56v-1.91l1.254-1.194c2.99-3.101 4.624-7.021 5.432-11.224h1.91v-6.687q-7.111.513-14.219 1.067-2.415.185-4.828.358c-13.941.291-13.941.291-25.848 6.217l-2.866-.955c8.501-6.383 17.501-6.791 27.847-7.407 2.598-.145 2.598-.145 4.568-.728 2.93-.687 5.776-.626 8.779-.642" fill="#4a4b4e"/><path d="M71.642 18.149v6.687h-.955v-5.731l-1.91.955v2.866h-1.91l-.179 2.985c-.974 4.639-2.236 6.115-5.554 9.432-2.885 1.788-4.988 2.129-8.358 2.03l-2.314-.053-1.746-.066v-.955l1.989-.317 2.608-.459 2.587-.437c2.716-.8 3.573-1.291 5.235-3.563 1.062-2.2 1.964-4.412 2.866-6.687-20.87.089-20.87.089-39.164 7.642h-3.821v-3.821h1.91l.955-2.866c6.484-5.954 15.557-5.899 23.844-6.531 2.349-.188 4.683-.468 7.021-.753 5.619-.56 11.257-.437 16.896-.358" fill="#a5a8ac"/><path d="M26.746 68.776h1.91l.351 2.474.485 3.197.47 3.19.605 2.602 1.91.955v1.91h4.776l.176-2.197.243-2.878c.076-.942.155-1.884.235-2.854.302-2.578.302-2.578 1.257-5.444h-9.552v-.955h11.463l-.955 6.687h2.866v17.194c-4.776 0-4.776 0-6.567-1.611l-2.031-2.21a151 151 0 0 0-3.343-2.208c-3.742-2.638-5.406-5.004-7.164-9.255.194-5.925.194-5.925 2.866-8.597" fill="#a0a4a8"/><path d="m30.567 67.821-.955 1.91h9.552l-.955 13.373c-3.821.955-3.821.955-5.731 0v-1.91l-2.866-.955c-.917-2.753-1.056-4.489-1.014-7.343l.026-2.34.033-1.78c-2.941 2.478-2.941 2.478-4.299 5.97.691 3.798 2.435 6.916 4.299 10.269-3.423-1.141-4.257-2.57-5.918-5.69-1.372-3.481-1.327-5.875-.769-9.594 2.912-2.669 4.891-3.42 8.597-1.91m0 3.821c-.966 3.073-1.12 4.395.18 7.403 1.696 2.548 1.696 2.548 5.551 3.104V71.642z" fill="#717477"/><path d="m65.075 16.06 3.59-.041c2.977.22 2.977.22 4.887 2.13.105 4.942-.645 9.887-2.866 14.328h-.955v-7.642h1.91v-6.687q-7.111.513-14.219 1.067-2.415.185-4.828.358c-13.941.292-13.941.292-25.848 6.218l-2.866-.955c8.501-6.383 17.501-6.791 27.847-7.407 2.598-.145 2.598-.145 4.568-.728 2.93-.687 5.776-.626 8.779-.642" fill="#3c3e42"/><path d="M64 19.104h6.687c-.165 7.195-1.794 12.134-5.731 18.149h-1.91v1.91c-2.869 1.435-5.531 1.044-8.716 1.015l-3.709-.027-2.86-.032c3.166-2.111 4.15-2.125 7.821-2.03l2.608.053 1.989.067.777-2.149c1.134-2.627 1.134-2.627 2.566-4.418 1.921-2.722 2.541-5.509 3.343-8.716h1.91V20.06h-4.776z" fill="#acafb4"/><path d="M29.612 43.94h3.821v2.866h-1.91v2.866h12.418v1.91l-1.847.384-2.392.511-2.384.504c-1.952.328-1.952.328-2.929 1.466-3.224.299-3.224.299-6.687 0-1.85-1.91-1.85-1.91-2.866-3.821 1.454-2.511 2.717-4.627 4.776-6.687" fill="#9c9d9f"/><path d="M65.91 22.925c.405 4.05.418 6.67-2.149 9.851-2.85 2.785-4.699 4.332-8.702 4.663l-2.283-.067-2.314-.053-1.746-.065v-.955l1.989-.317 2.608-.459 2.587-.437c2.716-.8 3.573-1.291 5.235-3.563 1.062-2.2 1.964-4.412 2.866-6.687-17.382 1.181-17.382 1.181-34.388 4.776v-2.866c12.075-2.43 23.963-3.821 36.298-3.821" fill="#4b4d52"/><path d="M71.642 18.149v6.687h-.955v-5.731l-1.91.955v2.866h-1.91l-.955 2.866v-2.866l-2.866.955a58 58 0 0 1-3.832.094l-2.192-.01-2.273-.025-2.309-.012q-2.816-.02-5.634-.047v-.955H62.09v-1.91H37.254v-.955c23.667-2.281 23.667-2.281 34.388-1.91" fill="#86888d"/><path d="M18.149 33.433h2.866l-.474 2.869c-.544 3.811-.575 7.548-.542 11.4l.013 1.979q.019 2.383.047 4.767l-4.776-.955V37.254l2.866-.955z" fill="#acadb0"/><path d="m21.97 25.791 1.91.955-.955 1.91h-1.91v3.821l2.149-.895c2.156-.833 4.198-1.471 6.448-1.971-2.682 2.831-4.951 5.201-8.597 6.687v-2.866h-2.866v2.866l-1.91.955a92 92 0 0 0-.597 7.224l-.112 2.058a606 606 0 0 0-.246 5.046h-.955c-1.172-15.089-1.172-15.089 1.701-20.251 1.878-2.052 3.731-3.854 5.941-5.54" fill="#5e6366"/><path d="M68.776 28.657h.955c.481 4.041.201 5.451-2.208 8.836-5.045 5.162-10.089 6.297-17.142 6.567-2.786 0-5.566-.034-8.351-.119v-.955l3.627-.593 4.731-.779 2.388-.391 2.314-.382 2.123-.349c1.969-.364 3.893-.822 5.832-1.328v-1.91l1.254-1.194c2.121-2.2 3.192-4.65 4.477-7.403" fill="#5e5e61"/><path d="M60.179 46.806v.955H48.716v1.91h7.642l.955 1.91H43.94v-1.91h-7.642v-.955c8.028-2.116 15.64-2.108 23.881-1.91" fill="#8e8e90"/><path d="M30.567 66.866h16.239v1.91l-1.91.955a97 97 0 0 0-1.91 5.731H40.12l.955-6.687H29.612z" fill="#acb0b3"/><path d="M22.925 49.672c2.056 3.083 2.101 4.092 1.91 7.642l2.866.955h-1.91v1.91c-1.134 1.552-1.134 1.552-2.866 2.866-2.567.18-2.567.18-4.776 0 1.431-2.973 3.057-5.782 4.776-8.597l-5.731.955 2.866-.955.955-2.866v1.91h1.91z" fill="#979b9e"/><path d="M26.746 68.776h1.91v12.418H25.79c-1.833-2.696-1.902-3.944-1.672-7.284.718-3.223.718-3.223 2.628-5.134" fill="#a6aaad"/><path d="M42.985 75.463v17.194h-4.776l3.821-.955-.948-2.041C40.039 86.698 39.924 84.5 40 81.374l.053-2.826.066-2.13c1.91-.955 1.91-.955 2.866-.955" fill="#808388"/><path d="M64 32.478h1.91l-.955 4.776h-1.91v1.91c-2.869 1.435-5.531 1.044-8.716 1.015l-3.709-.027-2.859-.033c3.166-2.111 4.15-2.125 7.821-2.03l2.608.053 1.989.067.955-2.866H64z" fill="#b8b9bc"/><path d="M18.149 40.119h.955l.955 14.328-4.776-.955v-4.776h.955l.418-3.761c.417-3.762.417-3.762 1.492-4.836" fill="#a0a1a4"/><path d="m40.358 22.328 3.657.321 2.791.276-.955 1.91c-5.429.97-10.737 1.07-16.239.955v-1.91c3.595-2.379 6.559-1.939 10.746-1.552" fill="#9ea1a5"/><path d="M29.612 70.687h8.597v12.418c-3.821.955-3.821.955-5.731 0l.955-1.91 2.866.955V71.642l-6.687.955z" fill="#4f575a"/><path d="m59.224 35.343 1.91.955-.955 1.91c-2.385.431-4.7.759-7.104 1.015-4.709.384-4.709.384-9.135 1.85a74 74 0 0 1-4.418.06l-2.366-.027-1.813-.031v-.955l8.597-.955v-1.91l2.858-.176 3.709-.243c1.219-.076 2.438-.155 3.694-.235 3-.103 3-.103 5.023-1.257" fill="#7e7d81"/><path d="M42.03 51.582q3.791-.038 7.583-.059l2.185-.025c1.839-.009 3.678.034 5.516.084l.955.955c-.525 8.024-.525 8.024-3.821 11.463l-2.866-.955 1.91-1.552c2.526-2.505 2.526-2.505 1.91-8l-13.373-.955z" fill="#56585b"/><path d="M48.716 47.761h11.463v1.91h1.91v5.731l-.955-2.866c-3.937-2.148-8.026-2.419-12.418-2.866z" fill="#b3b5b7"/><path d="M60.179 60.179 61.134 64c-3.623 3.302-6.499 4.526-11.283 5.493l-3.362.701-2.549.493.955-1.91h3.821v-1.91l3.582-.656c3.984-.97 5.661-2.517 7.881-6.032" fill="#5a6062"/><path d="M64 17.194q2.12-.038 4.239-.059l2.384-.034c1.974.093 1.974.093 2.929 1.048-.12 4.992-.61 9.817-2.866 14.328h-.955v-7.642h1.91v-6.687h-7.642z" fill="#4b4e56"/><path d="M22.925 68.776h.955l.075 1.612c.426 5.727 1.885 9.629 4.702 14.627-3.424-1.141-4.248-2.577-5.932-5.684-1.275-3.311-1.057-6.085-.755-9.6z" fill="#515659"/><path d="M54.448 65.91v.955h-5.731v1.91h-1.91v-1.91H35.343v-.955c6.524-1.129 12.538-.712 19.104 0" fill="#85898c"/><path d="M26.746 46.806h1.91l.358 2.329.598 2.447 1.91.955v1.91c-2.269-.298-2.269-.298-4.776-.955l-1.91-2.866z" fill="#cccdcf"/><path d="M37.254 83.104c.932 2.797 1.034 4.734.955 7.642l-6.687-3.821 2.866-.955v-1.91z" fill="#85878c"/><path d="m24.836 48.716.716 1.732c1.351 2.362 2.77 3.458 5.015 4.955l-1.91 1.91h-3.821c-.84-5.877-.84-5.877-.955-7.642z" fill="#adb0b2"/><path d="M65.91 25.791c1.552 1.612 1.552 1.612 2.866 3.821-.776 2.627-.776 2.627-1.91 4.776l-.955-1.91h-1.91v2.866l-2.866-.955 1.851-2.149c1.762-2.352 2.504-3.617 2.924-6.449" fill="#9ea1a6"/><path d="M22.925 49.672c1.91 2.866 1.91 2.866 1.552 5.911l-.596 2.686h-2.866l1.91-3.821-5.731.955 2.866-.955.955-2.866v1.91h1.91z" fill="#7f8285"/><path d="M68.776 28.657h.955c.353 5.173.353 5.173-1.433 8l-1.432 1.552-3.821-.955 1.254-1.075c2.053-2.281 3.186-4.754 4.477-7.522" fill="#65676e"/><path d="M29.612 43.94h3.821v2.866h-3.821v4.776h-.955c-.597-2.746-.597-2.746-.955-5.731z" fill="#b2b2b5"/><path d="M58.269 58.269h1.91l-.955 4.776-3.821.955v-2.866h2.866z" fill="#abafb2"/></svg>